<svg xmlns="http://www.w3.org/2000/svg" xmlns:xlink="http://www.w3.org/1999/xlink" xmlns:lucid="lucid" width="3801" height="1831"><g transform="translate(-535 -616)" lucid:page-tab-id="vRzZN2T0I1-k"><path d="M0 0h5352.86v2821.66H0z" fill="#fff"/><path d="M1540.9 735.12a8 8 0 0 1 8-8h1759.02a8 8 0 0 1 8 8v1614.14a8 8 0 0 1-8 8h-1759a8 8 0 0 1-8-8z" stroke="#333" fill="#4d9eff"/><use xlink:href="#a" transform="matrix(1,0,0,1,1571.9140536754207,758.1202922338152) translate(672.8047157964473 55.9875903436656)"/><use xlink:href="#b" transform="matrix(1,0,0,1,1571.9140536754207,758.1202922338152) translate(893.6446554853505 55.9875903436656)"/><path d="M1754.36 2357.76a.5.5 0 0 1 .5-.5h239a.5.5 0 0 1 .5.5.5.5 0 0 1-.5.5h-239a.5.5 0 0 1-.5-.5z" fill="none"/><path d="M1615.64 1245.77a8 8 0 0 1 8-8H3239.7a8 8 0 0 1 8 8v676.9a8 8 0 0 1-8 8H1623.63a8 8 0 0 1-8-8z" stroke="#333" fill="#a6e4dd"/><use xlink:href="#c" transform="matrix(1,0,0,1,1646.6426792194738,1268.7658650946114) translate(619.6242851759224 43.548045459739605)"/><use xlink:href="#d" transform="matrix(1,0,0,1,1646.6426792194738,1268.7658650946114) translate(791.548339647186 43.548045459739605)"/><path d="M2431.67 1992.15v-36.13" stroke="#333" stroke-width="5" fill="none"/><path d="M2431.67 2008.92l-4.64-14.27h9.27zM2431.67 1939.26l4.63 14.26h-9.27z" stroke="#333" stroke-width="5" fill="#333"/><path d="M1662.3 1380.8a8 8 0 0 1 8-8h690.82a8 8 0 0 1 8 8v443.55a8 8 0 0 1-8 8h-690.8a8 8 0 0 1-8-8z" stroke="#333" fill="#7270ff"/><use xlink:href="#e" transform="matrix(1,0,0,1,1693.3093458861404,1403.7869589004831) translate(23.863229920188473 43.548045459739605)"/><use xlink:href="#f" transform="matrix(1,0,0,1,1693.3093458861404,1403.7869589004831) translate(298.4578499024354 43.548045459739605)"/><path d="M1736.5 1503.02a8.35 8.35 0 0 1 8.34-8.35h195.48a8.35 8.35 0 0 1 8.35 8.35v66.82a8.35 8.35 0 0 1-8.35 8.35h-195.48a8.35 8.35 0 0 1-8.35-8.36z" stroke="#333" fill="#fff"/><use xlink:href="#g" transform="matrix(1,0,0,1,1756.489574679052,1494.6694676598568) translate(7.7777777777777715 50)"/><path d="M1874.47 1694.05a8.5 8.5 0 0 1 8.5-8.5h383a8.5 8.5 0 0 1 8.5 8.5v68a8.5 8.5 0 0 1-8.5 8.5h-383a8.5 8.5 0 0 1-8.5-8.5z" stroke="#333" fill="#fff"/><use xlink:href="#h" transform="matrix(1,0,0,1,1894.4658811224772,1685.5475174779604) translate(-6.166666666666629 51)"/><path d="M1736.5 1694.05a8.5 8.5 0 0 1 8.5-8.5h107.45a8.5 8.5 0 0 1 8.5 8.5v68a8.5 8.5 0 0 1-8.5 8.5H1745a8.5 8.5 0 0 1-8.5-8.5z" stroke="#333" fill="#fff"/><use xlink:href="#i" transform="matrix(1,0,0,1,1756.4895746790512,1685.5475174779604) translate(25.833333333333336 51)"/><path d="M1961.5 1503.02a8.35 8.35 0 0 1 8.36-8.35h301.67a8.35 8.35 0 0 1 8.35 8.35v66.82a8.35 8.35 0 0 1-8.35 8.35h-301.67a8.35 8.35 0 0 1-8.35-8.36z" stroke="#333" fill="#fff"/><use xlink:href="#j" transform="matrix(1,0,0,1,1981.5086912034662,1494.6694676598563) translate(30.777777777777757 50)"/><path d="M1736.5 1596.86a8.5 8.5 0 0 1 8.5-8.5h318.04a8.5 8.5 0 0 1 8.5 8.5v68a8.5 8.5 0 0 1-8.5 8.5H1745a8.5 8.5 0 0 1-8.5-8.5z" stroke="#333" fill="#fff"/><use xlink:href="#k" transform="matrix(1,0,0,1,1756.489574679052,1588.3609370085142) translate(19.333333333333314 51)"/><path d="M2084.47 1596.86a8.5 8.5 0 0 1 8.5-8.5h173a8.5 8.5 0 0 1 8.5 8.5v68a8.5 8.5 0 0 1-8.5 8.5h-173a8.5 8.5 0 0 1-8.5-8.5z" stroke="#333" fill="#fff"/><use xlink:href="#l" transform="matrix(1,0,0,1,2104.465881122476,1588.3609370085142) translate(1.2222222222222285 51)"/><path d="M2491.64 1380.8a8 8 0 0 1 8-8h690.82a8 8 0 0 1 8 8v443.55a8 8 0 0 1-8 8h-690.82a8 8 0 0 1-8-8z" stroke="#333" fill="#7270ff"/><use xlink:href="#m" transform="matrix(1,0,0,1,2522.6426792194734,1403.7869589004831) translate(29.83596532178467 43.548045459739605)"/><use xlink:href="#f" transform="matrix(1,0,0,1,2522.6426792194734,1403.7869589004831) translate(292.48511450083913 43.548045459739605)"/><path d="M2557.27 1517.9a8 8 0 0 1 8-8h221.88a8 8 0 0 1 8 8v203a8 8 0 0 1-8 8h-221.88a8 8 0 0 1-8-8z" stroke="#333" fill="#fff"/><path d="M2557.27 1573.9h237.88" stroke="#333" fill="none"/><use xlink:href="#n" transform="matrix(1,0,0,1,2565.2714892019685,1517.9033945182307) translate(61.16666666666667 32)"/><use xlink:href="#o" transform="matrix(1,0,0,1,2569.2714892019685,1581.9033945182307) translate(10.915362957031086 35.47808948457843)"/><use xlink:href="#p" transform="matrix(1,0,0,1,2569.2714892019685,1581.9033945182307) translate(34.02191051542157 35.47808948457843)"/><use xlink:href="#o" transform="matrix(1,0,0,1,2569.2714892019685,1581.9033945182307) translate(10.915362957031086 76.30438210308431)"/><use xlink:href="#q" transform="matrix(1,0,0,1,2569.2714892019685,1581.9033945182307) translate(34.02191051542157 76.30438210308431)"/><use xlink:href="#o" transform="matrix(1,0,0,1,2569.2714892019685,1581.9033945182307) translate(10.915362957031086 117.1306747215902)"/><use xlink:href="#r" transform="matrix(1,0,0,1,2569.2714892019685,1581.9033945182307) translate(34.02191051542157 117.1306747215902)"/><path d="M2880.3 1517.9a8 8 0 0 1 8-8h221.9a8 8 0 0 1 8 8v203a8 8 0 0 1-8 8h-221.9a8 8 0 0 1-8-8z" stroke="#333" fill="#fff"/><path d="M2880.3 1573.9h237.9" stroke="#333" fill="none"/><use xlink:href="#s" transform="matrix(1,0,0,1,2888.3066932457486,1517.9033945182307) translate(65.55555555555556 32)"/><use xlink:href="#o" transform="matrix(1,0,0,1,2892.3066932457486,1581.9033945182307) translate(10.915362957031086 35.47808948457843)"/><use xlink:href="#t" transform="matrix(1,0,0,1,2892.3066932457486,1581.9033945182307) translate(34.02191051542157 35.47808948457843)"/><use xlink:href="#o" transform="matrix(1,0,0,1,2892.3066932457486,1581.9033945182307) translate(10.915362957031086 76.30438210308431)"/><use xlink:href="#u" transform="matrix(1,0,0,1,2892.3066932457486,1581.9033945182307) translate(34.02191051542157 76.30438210308431)"/><use xlink:href="#v" transform="matrix(1,0,0,1,2892.3066932457486,1581.9033945182307) translate(0 117.1306747215902)"/><path d="M2021.14 1857.98l.56 2.33.92 2.23 1.26 2.04 1.55 1.83 1.83 1.55 2.04 1.26 2.22.92 2.33.56 2.47.2h194.44v3.95h-194.6l-2.93-.23-2.94-.7-2.8-1.16-2.57-1.58-2.3-1.96-1.96-2.3-1.58-2.57-1.16-2.8-.7-2.93-.23-2.85 3.94-.3zm829.14-5.98l-.27 3.44-.84 3.5-1.38 3.34-1.88 3.08-2.34 2.74-2.75 2.34-3.06 1.9-3.34 1.37-3.5.85-3.52.28h-190.85v-3.95h190.7l3.05-.24 2.9-.7 2.76-1.14 2.54-1.56 2.28-1.94 1.93-2.27 1.55-2.55 1.15-2.76.7-2.9.24-3.13z" stroke="#3a414a" stroke-width=".05" fill="#3a414a"/><path d="M2023.6 1853.6h-9.26l4.64-14.27z" fill="#3a414a"/><path d="M2026.33 1855.57h-14.7l7.35-22.64zm-9.27-3.95h3.83l-1.92-5.9z" stroke="#3a414a" stroke-width=".05" fill="#3a414a"/><path d="M2855.8 1849.84h-15l7.5-13z" fill="#3a414a"/><path d="M2859.23 1851.82h-21.84l10.9-18.92zm-15-3.95h8.16l-4.1-7.07z" stroke="#3a414a" stroke-width=".05" fill="#3a414a"/><use xlink:href="#w" transform="matrix(1,0,0,1,2230.7586868040516,1848.3573378574606) translate(0.0049999999999954525 32.6610340948047)"/><use xlink:href="#x" transform="matrix(1,0,0,1,2230.7586868040516,1848.3573378574606) translate(77.12133050162221 32.6610340948047)"/><use xlink:href="#y" transform="matrix(1,0,0,1,2230.7586868040516,1848.3573378574606) translate(133.8245146939915 32.6610340948047)"/><use xlink:href="#z" transform="matrix(1,0,0,1,2230.7586868040516,1848.3573378574606) translate(362.6785660943939 32.6610340948047)"/><path d="M1615.64 2025.5a8 8 0 0 1 8-8H3239.7a8 8 0 0 1 8 8v236.9a8 8 0 0 1-8 8H1623.63a8 8 0 0 1-8-8z" stroke="#333" fill="#a6e4dd"/><use xlink:href="#A" transform="matrix(1,0,0,1,1646.6426792194738,2048.5109393991597) translate(439.98859765449663 43.548045459739605)"/><use xlink:href="#B" transform="matrix(1,0,0,1,1646.6426792194738,2048.5109393991597) translate(714.5832176367435 43.548045459739605)"/><use xlink:href="#C" transform="matrix(1,0,0,1,1646.6426792194738,2048.5109393991597) translate(841.2959332452913 43.548045459739605)"/><path d="M1647.93 2156.96a7.72 7.72 0 0 1 7.7-7.72h306.58a7.72 7.72 0 0 1 7.73 7.72v61.73a7.72 7.72 0 0 1-7.72 7.7h-306.56a7.72 7.72 0 0 1-7.7-7.7z" stroke="#333" fill="#fff"/><use xlink:href="#D" transform="matrix(1,0,0,1,1667.9282397590318,2149.2421199597175) translate(31.10922903518835 47.165258523701176)"/><path d="M2062.98 2156.96a7.72 7.72 0 0 1 7.72-7.72h306.56a7.72 7.72 0 0 1 7.72 7.72v61.73a7.72 7.72 0 0 1-7.72 7.7H2070.7a7.72 7.72 0 0 1-7.72-7.7z" stroke="#333" fill="#fff"/><use xlink:href="#E" transform="matrix(1,0,0,1,2082.98017966898,2149.2421199597175) translate(4.005106991235834 47.165258523701176)"/><path d="M2478.03 2156.96a7.72 7.72 0 0 1 7.72-7.72h306.57a7.72 7.72 0 0 1 7.7 7.72v61.73a7.72 7.72 0 0 1-7.7 7.7h-306.57a7.72 7.72 0 0 1-7.72-7.7z" stroke="#333" fill="#fff"/><use xlink:href="#F" transform="matrix(1,0,0,1,2498.0321195789284,2149.2421199597175) translate(0.6029159396936734 47.165258523701176)"/><use xlink:href="#G" transform="matrix(1,0,0,1,2498.0321195789284,2149.2421199597175) translate(84.29681580763071 47.165258523701176)"/><path d="M2893.4 2156.96a7.72 7.72 0 0 1 7.72-7.72h306.57a7.72 7.72 0 0 1 7.7 7.72v61.73a7.72 7.72 0 0 1-7.7 7.7H2901.1a7.72 7.72 0 0 1-7.7-7.7z" stroke="#333" fill="#fff"/><use xlink:href="#H" transform="matrix(1,0,0,1,2913.4055567660957,2149.2421199597175) translate(1.3400573341944835 47.165258523701176)"/><use xlink:href="#I" transform="matrix(1,0,0,1,2913.4055567660957,2149.2421199597175) translate(101.59128698630336 47.165258523701176)"/><path d="M1615.64 899a8 8 0 0 1 8-8H3239.7a8 8 0 0 1 8 8v236.9a8 8 0 0 1-8 8H1623.63a8 8 0 0 1-8-8z" stroke="#333" fill="#a6e4dd"/><use xlink:href="#J" transform="matrix(1,0,0,1,1646.6426792194738,922.0091811227039) translate(657.1995952340658 43.548045459739605)"/><path d="M1647.93 1030.46a7.72 7.72 0 0 1 7.7-7.72h264.55a7.72 7.72 0 0 1 7.72 7.72v61.73a7.72 7.72 0 0 1-7.72 7.7h-264.54a7.72 7.72 0 0 1-7.7-7.7z" stroke="#333" fill="#fff"/><use xlink:href="#K" transform="matrix(1,0,0,1,1667.928239759032,1022.7403616832621) translate(32.79050271213606 47.165258523701176)"/><path d="M1963.96 1030.46a7.72 7.72 0 0 1 7.72-7.72h252a7.72 7.72 0 0 1 7.73 7.72v61.73a7.72 7.72 0 0 1-7.7 7.7h-252.02a7.72 7.72 0 0 1-7.72-7.7z" stroke="#333" fill="#fff"/><use xlink:href="#L" transform="matrix(1,0,0,1,1983.9599978177605,1022.7403616832621) translate(56.276158492168086 47.165258523701176)"/><path d="M2261.94 1030.46a7.72 7.72 0 0 1 7.72-7.72h267.22a7.72 7.72 0 0 1 7.7 7.72v61.73a7.72 7.72 0 0 1-7.7 7.7h-267.22a7.72 7.72 0 0 1-7.72-7.7z" stroke="#333" fill="#fff"/><use xlink:href="#M" transform="matrix(1,0,0,1,2281.941470972008,1022.7403616832621) translate(20.68173850596743 47.165258523701176)"/><path d="M2579.92 1030.46a7.72 7.72 0 0 1 7.72-7.72h252.9a7.72 7.72 0 0 1 7.73 7.72v61.73a7.72 7.72 0 0 1-7.72 7.7h-252.9a7.72 7.72 0 0 1-7.73-7.7z" stroke="#333" fill="#fff"/><g><use xlink:href="#H" transform="matrix(1,0,0,1,2599.922944126255,1022.7403616832621) translate(14.475583084660599 47.165258523701176)"/><use xlink:href="#N" transform="matrix(1,0,0,1,2599.922944126255,1022.7403616832621) translate(114.72681273676947 47.165258523701176)"/></g><path d="M2880.3 1030.46a7.72 7.72 0 0 1 7.72-7.72h252.9a7.72 7.72 0 0 1 7.73 7.72v61.73a7.72 7.72 0 0 1-7.72 7.7h-252.9a7.72 7.72 0 0 1-7.72-7.7z" stroke="#333" fill="#fff"/><g><use xlink:href="#O" transform="matrix(1,0,0,1,2900.3066932457486,1022.7403616832621) translate(97.48904474228922 47.165258523701176)"/></g><path d="M609.94 1382.07a8 8 0 0 1 8-8H1098a8 8 0 0 1 8 8v414.12a8 8 0 0 1-8 8H617.95a8 8 0 0 1-8-8z" stroke="#333" fill="#6f9cdc"/><g><use xlink:href="#a" transform="matrix(1,0,0,1,640.936378535198,1405.0704463441461) translate(35.34593002772684 55.9875903436656)"/><use xlink:href="#P" transform="matrix(1,0,0,1,640.936378535198,1405.0704463441461) translate(256.18586971663007 55.9875903436656)"/></g><path d="M3723.44 1382.07a8 8 0 0 1 8-8h482.18a8 8 0 0 1 8 8v424.65a8 8 0 0 1-8 8h-482.18a8 8 0 0 1-8-8z" stroke="#333" fill="#6f9cdc"/><g><use xlink:href="#a" transform="matrix(1,0,0,1,3754.437497144015,1405.0704463441461) translate(5.144512492454851 55.9875903436656)"/><use xlink:href="#Q" transform="matrix(1,0,0,1,3754.437497144015,1405.0704463441461) translate(225.98445218135808 55.9875903436656)"/></g><path d="M1245.32 1591.1h-136.8v-3.94h136.8zm347.1-1.28h-116.1v-3.95h116.1z" stroke="#3a414a" stroke-width=".05" fill="#3a414a"/><path d="M1108.56 1591.1h-2.05v-3.94h2.06z" fill="#3a414a"/><path stroke="#3a414a" stroke-width=".05" fill="#3a414a"/><path d="M1608.67 1587.85l-14.27 4.63v-9.27z" fill="#3a414a"/><path d="M1615.06 1587.85l-22.63 7.35v-14.7zm-18.68 1.9l5.9-1.9-5.9-1.92z" stroke="#3a414a" stroke-width=".05" fill="#3a414a"/><g><use xlink:href="#R" transform="matrix(1,0,0,1,1245.3213949457333,1539.497444326926) translate(27.109122043952524 32.6610340948047)"/><use xlink:href="#S" transform="matrix(1,0,0,1,1245.3213949457333,1539.497444326926) translate(0.0049999999999954525 81.65258523701175)"/><use xlink:href="#T" transform="matrix(1,0,0,1,1245.3213949457333,1539.497444326926) translate(122.25706511874814 81.65258523701175)"/></g><path d="M3700.2 1611.13v3.95h-120.35v-3.95zm-478.5-6.6v-3.93h120.34v3.95z" stroke="#3a414a" stroke-width=".05" fill="#3a414a"/><path d="M3219.7 1607.2l-14.27-4.63 14.26-4.63z" fill="#3a414a"/><path d="M3221.67 1609.92l-22.63-7.35 22.63-7.35zm-9.85-7.35l5.9 1.92v-3.85z" stroke="#3a414a" stroke-width=".05" fill="#3a414a"/><path d="M3716.47 1613.1l-14.27 4.64v-9.27z" fill="#3a414a"/><path d="M3722.86 1613.1l-22.64 7.36v-14.7zm-18.68 1.92l5.9-1.92-5.9-1.9z" stroke="#3a414a" stroke-width=".05" fill="#3a414a"/><g><use xlink:href="#U" transform="matrix(1,0,0,1,3342.0401011328563,1534.3495118638477) translate(0.0049999999999954525 32.6610340948047)"/><use xlink:href="#V" transform="matrix(1,0,0,1,3342.0401011328563,1534.3495118638477) translate(126.90672622252244 32.6610340948047)"/><use xlink:href="#W" transform="matrix(1,0,0,1,3342.0401011328563,1534.3495118638477) translate(84.88966673597682 81.65258523701175)"/><use xlink:href="#X" transform="matrix(1,0,0,1,3342.0401011328563,1534.3495118638477) translate(14.691124705823654 130.6441363792188)"/><use xlink:href="#Y" transform="matrix(1,0,0,1,3342.0401011328563,1534.3495118638477) translate(103.14809204591971 130.6441363792188)"/></g><defs><path fill="#fff" d="M76-208v77h127v40H76V0H24v-248h183v40H76" id="Z"/><path fill="#fff" d="M240-174c0 40-23 61-54 70L253 0h-59l-57-94H76V0H24v-248c93 4 217-23 216 74zM76-134c48-2 112 12 112-38 0-48-66-32-112-35v73" id="aa"/><path fill="#fff" d="M199 0l-22-63H83L61 0H9l90-248h61L250 0h-51zm-33-102l-36-108c-10 38-24 72-36 108h72" id="ab"/><path fill="#fff" d="M230 0l2-204L168 0h-37L68-204 70 0H24v-248h70l56 185 57-185h69V0h-46" id="ac"/><g id="a"><use transform="matrix(0.19440135535995,0,0,0.19440135535995,0,0)" xlink:href="#Z"/><use transform="matrix(0.19440135535995,0,0,0.19440135535995,42.57389682382905,0)" xlink:href="#aa"/><use transform="matrix(0.19440135535995,0,0,0.19440135535995,92.9238478620561,0)" xlink:href="#ab"/><use transform="matrix(0.19440135535995,0,0,0.19440135535995,143.27379890028317,0)" xlink:href="#ac"/></g><path fill="#fff" d="M190-63c-7 42-38 67-86 67-59 0-84-38-90-98-12-110 154-137 174-36l-49 2c-2-19-15-32-35-32-30 0-35 28-38 64-6 74 65 87 74 30" id="ad"/><path fill="#fff" d="M110-194c64 0 96 36 96 99 0 64-35 99-97 99-61 0-95-36-95-99 0-62 34-99 96-99zm-1 164c35 0 45-28 45-65 0-40-10-65-43-65-34 0-45 26-45 65 0 36 10 65 43 65" id="ae"/><path fill="#fff" d="M135-150c-39-12-60 13-60 57V0H25l-1-190h47c2 13-1 29 3 40 6-28 27-53 61-41v41" id="af"/><path fill="#fff" d="M185-48c-13 30-37 53-82 52C43 2 14-33 14-96s30-98 90-98c62 0 83 45 84 108H66c0 31 8 55 39 56 18 0 30-7 34-22zm-45-69c5-46-57-63-70-21-2 6-4 13-4 21h74" id="ag"/><g id="b"><use transform="matrix(0.19440135535995,0,0,0.19440135535995,0,0)" xlink:href="#ad"/><use transform="matrix(0.19440135535995,0,0,0.19440135535995,38.88027107199,0)" xlink:href="#ae"/><use transform="matrix(0.19440135535995,0,0,0.19440135535995,81.45416789581905,0)" xlink:href="#af"/><use transform="matrix(0.19440135535995,0,0,0.19440135535995,108.67035764621205,0)" xlink:href="#ag"/></g><path fill="#333" d="M230 0l2-204L168 0h-37L68-204 70 0H24v-248h70l56 185 57-185h69V0h-46" id="ah"/><path fill="#333" d="M110-194c64 0 96 36 96 99 0 64-35 99-97 99-61 0-95-36-95-99 0-62 34-99 96-99zm-1 164c35 0 45-28 45-65 0-40-10-65-43-65-34 0-45 26-45 65 0 36 10 65 43 65" id="ai"/><path fill="#333" d="M88-194c31-1 46 15 58 34l-1-101h50l1 261h-48c-2-10 0-23-3-31C134-8 116 4 84 4 32 4 16-41 15-95c0-56 19-97 73-99zm17 164c33 0 40-30 41-66 1-37-9-64-41-64s-38 30-39 65c0 43 13 65 39 65" id="aj"/><path fill="#333" d="M185-48c-13 30-37 53-82 52C43 2 14-33 14-96s30-98 90-98c62 0 83 45 84 108H66c0 31 8 55 39 56 18 0 30-7 34-22zm-45-69c5-46-57-63-70-21-2 6-4 13-4 21h74" id="ak"/><path fill="#333" d="M25 0v-261h50V0H25" id="al"/><g id="c"><use transform="matrix(0.1512084911796514,0,0,0.1512084911796514,0,0)" xlink:href="#ah"/><use transform="matrix(0.1512084911796514,0,0,0.1512084911796514,45.21133886271577,0)" xlink:href="#ai"/><use transform="matrix(0.1512084911796514,0,0,0.1512084911796514,78.32599843105942,0)" xlink:href="#aj"/><use transform="matrix(0.1512084911796514,0,0,0.1512084911796514,111.44065799940307,0)" xlink:href="#ak"/><use transform="matrix(0.1512084911796514,0,0,0.1512084911796514,141.68235623533334,0)" xlink:href="#al"/></g><path fill="#333" d="M135-194c52 0 70 43 70 98 0 56-19 99-73 100-30 1-46-15-58-35L72 0H24l1-261h50v104c11-23 29-37 60-37zM114-30c31 0 40-27 40-66 0-37-7-63-39-63s-41 28-41 65c0 36 8 64 40 64" id="am"/><path fill="#333" d="M25-224v-37h50v37H25zM75 22c2 45-34 59-81 51V38c22 5 31-5 31-27v-201h50V22" id="an"/><path fill="#333" d="M190-63c-7 42-38 67-86 67-59 0-84-38-90-98-12-110 154-137 174-36l-49 2c-2-19-15-32-35-32-30 0-35 28-38 64-6 74 65 87 74 30" id="ao"/><path fill="#333" d="M115-3C79 11 28 4 28-45v-112H4v-33h27l15-45h31v45h36v33H77v99c-1 23 16 31 38 25v30" id="ap"/><g id="d"><use transform="matrix(0.1512084911796514,0,0,0.1512084911796514,0,0)" xlink:href="#ai"/><use transform="matrix(0.1512084911796514,0,0,0.1512084911796514,33.114659568343654,0)" xlink:href="#am"/><use transform="matrix(0.1512084911796514,0,0,0.1512084911796514,66.22931913668731,0)" xlink:href="#an"/><use transform="matrix(0.1512084911796514,0,0,0.1512084911796514,81.35016825465244,0)" xlink:href="#ak"/><use transform="matrix(0.1512084911796514,0,0,0.1512084911796514,111.59186649058273,0)" xlink:href="#ao"/><use transform="matrix(0.1512084911796514,0,0,0.1512084911796514,141.833564726513,0)" xlink:href="#ap"/></g><path fill="#fff" d="M186 0v-106H76V0H24v-248h52v99h110v-99h50V0h-50" id="aq"/><path fill="#fff" d="M25-224v-37h50v37H25zM25 0v-190h50V0H25" id="ar"/><path fill="#fff" d="M195-6C206 82 75 100 31 46c-4-6-6-13-8-21l49-6c3 16 16 24 34 25 40 0 42-37 40-79-11 22-30 35-61 35-53 0-70-43-70-97 0-56 18-96 73-97 30 0 46 14 59 34l2-30h47zm-90-29c32 0 41-27 41-63 0-35-9-62-40-62-32 0-39 29-40 63 0 36 9 62 39 62" id="as"/><path fill="#fff" d="M114-157C55-157 80-60 75 0H25v-261h50l-1 109c12-26 28-41 61-42 86-1 58 113 63 194h-50c-7-57 23-157-34-157" id="at"/><path fill="#fff" d="M14-72v-43h91v43H14" id="au"/><path fill="#fff" d="M25 0v-261h50V0H25" id="av"/><path fill="#fff" d="M128 0H69L1-190h53L99-40l48-150h52" id="aw"/><g id="e"><use transform="matrix(0.1512084911796514,0,0,0.1512084911796514,0,0)" xlink:href="#aq"/><use transform="matrix(0.1512084911796514,0,0,0.1512084911796514,39.162999215529716,0)" xlink:href="#ar"/><use transform="matrix(0.1512084911796514,0,0,0.1512084911796514,54.283848333494866,0)" xlink:href="#as"/><use transform="matrix(0.1512084911796514,0,0,0.1512084911796514,87.39850790183851,0)" xlink:href="#at"/><use transform="matrix(0.1512084911796514,0,0,0.1512084911796514,120.51316747018217,0)" xlink:href="#au"/><use transform="matrix(0.1512084911796514,0,0,0.1512084911796514,138.5069779205607,0)" xlink:href="#av"/><use transform="matrix(0.1512084911796514,0,0,0.1512084911796514,153.62782703852585,0)" xlink:href="#ag"/><use transform="matrix(0.1512084911796514,0,0,0.1512084911796514,183.86952527445612,0)" xlink:href="#aw"/><use transform="matrix(0.1512084911796514,0,0,0.1512084911796514,214.1112235103864,0)" xlink:href="#ag"/><use transform="matrix(0.1512084911796514,0,0,0.1512084911796514,244.35292174631667,0)" xlink:href="#av"/></g><path fill="#fff" d="M220-157c-53 9-28 100-34 157h-49v-107c1-27-5-49-29-50C55-147 81-57 75 0H25l-1-190h47c2 12-1 28 3 38 10-53 101-56 108 0 13-22 24-43 59-42 82 1 51 116 57 194h-49v-107c-1-25-5-48-29-50" id="ax"/><path fill="#fff" d="M135-194c53 0 70 44 70 98 0 56-19 98-73 100-31 1-45-17-59-34 3 33 2 69 2 105H25l-1-265h48c2 10 0 23 3 31 11-24 29-35 60-35zM114-30c33 0 39-31 40-66 0-38-9-64-40-64-56 0-55 130 0 130" id="ay"/><path fill="#fff" d="M135-194c87-1 58 113 63 194h-50c-7-57 23-157-34-157-59 0-34 97-39 157H25l-1-190h47c2 12-1 28 3 38 12-26 28-41 61-42" id="az"/><path fill="#fff" d="M115-3C79 11 28 4 28-45v-112H4v-33h27l15-45h31v45h36v33H77v99c-1 23 16 31 38 25v30" id="aA"/><path fill="#fff" d="M137-138c1-29-70-34-71-4 15 46 118 7 119 86 1 83-164 76-172 9l43-7c4 19 20 25 44 25 33 8 57-30 24-41C81-84 22-81 20-136c-2-80 154-74 161-7" id="aB"/><g id="f"><use transform="matrix(0.1512084911796514,0,0,0.1512084911796514,0,0)" xlink:href="#ad"/><use transform="matrix(0.1512084911796514,0,0,0.1512084911796514,30.24169823593028,0)" xlink:href="#ae"/><use transform="matrix(0.1512084911796514,0,0,0.1512084911796514,63.356357804273934,0)" xlink:href="#ax"/><use transform="matrix(0.1512084911796514,0,0,0.1512084911796514,111.74307498176239,0)" xlink:href="#ay"/><use transform="matrix(0.1512084911796514,0,0,0.1512084911796514,144.85773455010604,0)" xlink:href="#ae"/><use transform="matrix(0.1512084911796514,0,0,0.1512084911796514,177.9723941184497,0)" xlink:href="#az"/><use transform="matrix(0.1512084911796514,0,0,0.1512084911796514,211.08705368679335,0)" xlink:href="#ag"/><use transform="matrix(0.1512084911796514,0,0,0.1512084911796514,241.32875192272365,0)" xlink:href="#az"/><use transform="matrix(0.1512084911796514,0,0,0.1512084911796514,274.4434114910673,0)" xlink:href="#aA"/><use transform="matrix(0.1512084911796514,0,0,0.1512084911796514,292.43722194144584,0)" xlink:href="#aB"/></g><path fill="#333" d="M24-248c120-7 223 5 221 122C244-46 201 0 124 0H24v-248zM76-40c74 7 117-18 117-86 0-67-45-88-117-82v168" id="aC"/><path fill="#333" d="M220-157c-53 9-28 100-34 157h-49v-107c1-27-5-49-29-50C55-147 81-57 75 0H25l-1-190h47c2 12-1 28 3 38 10-53 101-56 108 0 13-22 24-43 59-42 82 1 51 116 57 194h-49v-107c-1-25-5-48-29-50" id="aD"/><path fill="#333" d="M133-34C117-15 103 5 69 4 32 3 11-16 11-54c-1-60 55-63 116-61 1-26-3-47-28-47-18 1-26 9-28 27l-52-2c7-38 36-58 82-57s74 22 75 68l1 82c-1 14 12 18 25 15v27c-30 8-71 5-69-32zm-48 3c29 0 43-24 42-57-32 0-66-3-65 30 0 17 8 27 23 27" id="aE"/><path fill="#333" d="M135-194c87-1 58 113 63 194h-50c-7-57 23-157-34-157-59 0-34 97-39 157H25l-1-190h47c2 12-1 28 3 38 12-26 28-41 61-42" id="aF"/><g id="g"><use transform="matrix(0.1111111111111111,0,0,0.1111111111111111,0,0)" xlink:href="#aC"/><use transform="matrix(0.1111111111111111,0,0,0.1111111111111111,28.777777777777775,0)" xlink:href="#ak"/><use transform="matrix(0.1111111111111111,0,0,0.1111111111111111,51,0)" xlink:href="#aD"/><use transform="matrix(0.1111111111111111,0,0,0.1111111111111111,86.55555555555556,0)" xlink:href="#aE"/><use transform="matrix(0.1111111111111111,0,0,0.1111111111111111,108.77777777777777,0)" xlink:href="#aF"/><use transform="matrix(0.1111111111111111,0,0,0.1111111111111111,133.11111111111111,0)" xlink:href="#aj"/></g><path fill="#333" d="M186 0v-106H76V0H24v-248h52v99h110v-99h50V0h-50" id="aG"/><path fill="#333" d="M123 10C108 53 80 86 19 72V37c35 8 53-11 59-39L3-190h52l48 148c12-52 28-100 44-148h51" id="aH"/><path fill="#333" d="M135-150c-39-12-60 13-60 57V0H25l-1-190h47c2 13-1 29 3 40 6-28 27-53 61-41v41" id="aI"/><path fill="#333" d="M135-194c53 0 70 44 70 98 0 56-19 98-73 100-31 1-45-17-59-34 3 33 2 69 2 105H25l-1-265h48c2 10 0 23 3 31 11-24 29-35 60-35zM114-30c33 0 39-31 40-66 0-38-9-64-40-64-56 0-55 130 0 130" id="aJ"/><path fill="#333" d="M231 0h-52l-39-155L100 0H48L-1-190h46L77-45c9-52 24-97 36-145h53l37 145 32-145h46" id="aK"/><path fill="#333" d="M85 4C-2 5 27-109 22-190h50c7 57-23 150 33 157 60-5 35-97 40-157h50l1 190h-47c-2-12 1-28-3-38-12 25-28 42-61 42" id="aL"/><g id="h"><use transform="matrix(0.1111111111111111,0,0,0.1111111111111111,0,0)" xlink:href="#aG"/><use transform="matrix(0.1111111111111111,0,0,0.1111111111111111,28.777777777777775,0)" xlink:href="#aH"/><use transform="matrix(0.1111111111111111,0,0,0.1111111111111111,51,0)" xlink:href="#aj"/><use transform="matrix(0.1111111111111111,0,0,0.1111111111111111,75.33333333333333,0)" xlink:href="#aI"/><use transform="matrix(0.1111111111111111,0,0,0.1111111111111111,90.88888888888889,0)" xlink:href="#ai"/><use transform="matrix(0.1111111111111111,0,0,0.1111111111111111,115.22222222222221,0)" xlink:href="#aJ"/><use transform="matrix(0.1111111111111111,0,0,0.1111111111111111,139.55555555555554,0)" xlink:href="#ai"/><use transform="matrix(0.1111111111111111,0,0,0.1111111111111111,163.88888888888889,0)" xlink:href="#aK"/><use transform="matrix(0.1111111111111111,0,0,0.1111111111111111,195,0)" xlink:href="#ak"/><use transform="matrix(0.1111111111111111,0,0,0.1111111111111111,217.22222222222223,0)" xlink:href="#aI"/><use transform="matrix(0.1111111111111111,0,0,0.1111111111111111,232.77777777777777,0)" xlink:href="#ah"/><use transform="matrix(0.1111111111111111,0,0,0.1111111111111111,266,0)" xlink:href="#ai"/><use transform="matrix(0.1111111111111111,0,0,0.1111111111111111,290.3333333333333,0)" xlink:href="#aj"/><use transform="matrix(0.1111111111111111,0,0,0.1111111111111111,314.66666666666663,0)" xlink:href="#aL"/><use transform="matrix(0.1111111111111111,0,0,0.1111111111111111,338.99999999999994,0)" xlink:href="#al"/><use transform="matrix(0.1111111111111111,0,0,0.1111111111111111,350.11111111111103,0)" xlink:href="#ak"/></g><path fill="#333" d="M24 0v-54h51V0H24" id="aM"/><g id="i"><use transform="matrix(0.1111111111111111,0,0,0.1111111111111111,0,0)" xlink:href="#aM"/><use transform="matrix(0.1111111111111111,0,0,0.1111111111111111,11.11111111111111,0)" xlink:href="#aM"/><use transform="matrix(0.1111111111111111,0,0,0.1111111111111111,22.22222222222222,0)" xlink:href="#aM"/></g><path fill="#333" d="M24-248c93 1 206-16 204 79-1 75-69 88-152 82V0H24v-248zm52 121c47 0 100 7 100-41 0-47-54-39-100-39v80" id="aN"/><g id="j"><use transform="matrix(0.1111111111111111,0,0,0.1111111111111111,0,0)" xlink:href="#aN"/><use transform="matrix(0.1111111111111111,0,0,0.1111111111111111,26.666666666666664,0)" xlink:href="#ai"/><use transform="matrix(0.1111111111111111,0,0,0.1111111111111111,51,0)" xlink:href="#aK"/><use transform="matrix(0.1111111111111111,0,0,0.1111111111111111,82.11111111111111,0)" xlink:href="#ak"/><use transform="matrix(0.1111111111111111,0,0,0.1111111111111111,104.33333333333334,0)" xlink:href="#aI"/><use transform="matrix(0.1111111111111111,0,0,0.1111111111111111,119.88888888888891,0)" xlink:href="#aN"/><use transform="matrix(0.1111111111111111,0,0,0.1111111111111111,146.55555555555557,0)" xlink:href="#al"/><use transform="matrix(0.1111111111111111,0,0,0.1111111111111111,157.66666666666669,0)" xlink:href="#aE"/><use transform="matrix(0.1111111111111111,0,0,0.1111111111111111,179.8888888888889,0)" xlink:href="#aF"/><use transform="matrix(0.1111111111111111,0,0,0.1111111111111111,204.22222222222226,0)" xlink:href="#ap"/></g><path fill="#333" d="M136-208V0H84v-208H4v-40h212v40h-80" id="aO"/><path fill="#333" d="M137-138c1-29-70-34-71-4 15 46 118 7 119 86 1 83-164 76-172 9l43-7c4 19 20 25 44 25 33 8 57-30 24-41C81-84 22-81 20-136c-2-80 154-74 161-7" id="aP"/><path fill="#333" d="M25-224v-37h50v37H25zM25 0v-190h50V0H25" id="aQ"/><g id="k"><use transform="matrix(0.1111111111111111,0,0,0.1111111111111111,0,0)" xlink:href="#aO"/><use transform="matrix(0.1111111111111111,0,0,0.1111111111111111,22.11111111111111,0)" xlink:href="#aI"/><use transform="matrix(0.1111111111111111,0,0,0.1111111111111111,37.666666666666664,0)" xlink:href="#aE"/><use transform="matrix(0.1111111111111111,0,0,0.1111111111111111,59.888888888888886,0)" xlink:href="#aF"/><use transform="matrix(0.1111111111111111,0,0,0.1111111111111111,84.22222222222221,0)" xlink:href="#aP"/><use transform="matrix(0.1111111111111111,0,0,0.1111111111111111,106.44444444444443,0)" xlink:href="#aD"/><use transform="matrix(0.1111111111111111,0,0,0.1111111111111111,142,0)" xlink:href="#aQ"/><use transform="matrix(0.1111111111111111,0,0,0.1111111111111111,153.11111111111111,0)" xlink:href="#aP"/><use transform="matrix(0.1111111111111111,0,0,0.1111111111111111,175.33333333333334,0)" xlink:href="#aP"/><use transform="matrix(0.1111111111111111,0,0,0.1111111111111111,197.55555555555557,0)" xlink:href="#aQ"/><use transform="matrix(0.1111111111111111,0,0,0.1111111111111111,208.66666666666669,0)" xlink:href="#ai"/><use transform="matrix(0.1111111111111111,0,0,0.1111111111111111,233.00000000000003,0)" xlink:href="#aF"/></g><path fill="#333" d="M169-182c-1-43-94-46-97-3 18 66 151 10 154 114 3 95-165 93-204 36-6-8-10-19-12-30l50-8c3 46 112 56 116 5-17-69-150-10-154-114-4-87 153-88 188-35 5 8 8 18 10 28" id="aR"/><path fill="#333" d="M195-6C206 82 75 100 31 46c-4-6-6-13-8-21l49-6c3 16 16 24 34 25 40 0 42-37 40-79-11 22-30 35-61 35-53 0-70-43-70-97 0-56 18-96 73-97 30 0 46 14 59 34l2-30h47zm-90-29c32 0 41-27 41-63 0-35-9-62-40-62-32 0-39 29-40 63 0 36 9 62 39 62" id="aS"/><g id="l"><use transform="matrix(0.1111111111111111,0,0,0.1111111111111111,0,0)" xlink:href="#aR"/><use transform="matrix(0.1111111111111111,0,0,0.1111111111111111,26.666666666666664,0)" xlink:href="#ap"/><use transform="matrix(0.1111111111111111,0,0,0.1111111111111111,39.888888888888886,0)" xlink:href="#ai"/><use transform="matrix(0.1111111111111111,0,0,0.1111111111111111,64.22222222222221,0)" xlink:href="#aI"/><use transform="matrix(0.1111111111111111,0,0,0.1111111111111111,79.77777777777777,0)" xlink:href="#aE"/><use transform="matrix(0.1111111111111111,0,0,0.1111111111111111,102,0)" xlink:href="#aS"/><use transform="matrix(0.1111111111111111,0,0,0.1111111111111111,126.33333333333333,0)" xlink:href="#ak"/></g><path fill="#fff" d="M24 0v-248h52v208h133V0H24" id="aT"/><path fill="#fff" d="M231 0h-52l-39-155L100 0H48L-1-190h46L77-45c9-52 24-97 36-145h53l37 145 32-145h46" id="aU"/><g id="m"><use transform="matrix(0.1512084911796514,0,0,0.1512084911796514,0,0)" xlink:href="#aT"/><use transform="matrix(0.1512084911796514,0,0,0.1512084911796514,33.114659568343654,0)" xlink:href="#ae"/><use transform="matrix(0.1512084911796514,0,0,0.1512084911796514,66.22931913668731,0)" xlink:href="#aU"/><use transform="matrix(0.1512084911796514,0,0,0.1512084911796514,108.5676966669897,0)" xlink:href="#au"/><use transform="matrix(0.1512084911796514,0,0,0.1512084911796514,126.56150711736822,0)" xlink:href="#av"/><use transform="matrix(0.1512084911796514,0,0,0.1512084911796514,141.68235623533337,0)" xlink:href="#ag"/><use transform="matrix(0.1512084911796514,0,0,0.1512084911796514,171.92405447126364,0)" xlink:href="#aw"/><use transform="matrix(0.1512084911796514,0,0,0.1512084911796514,202.16575270719392,0)" xlink:href="#ag"/><use transform="matrix(0.1512084911796514,0,0,0.1512084911796514,232.4074509431242,0)" xlink:href="#av"/></g><path fill="#242424" d="M175 0L67-191c6 58 2 128 3 191H24v-248h59L193-55c-6-58-2-129-3-193h46V0h-61" id="aV"/><path fill="#242424" d="M110-194c64 0 96 36 96 99 0 64-35 99-97 99-61 0-95-36-95-99 0-62 34-99 96-99zm-1 164c35 0 45-28 45-65 0-40-10-65-43-65-34 0-45 26-45 65 0 36 10 65 43 65" id="aW"/><path fill="#242424" d="M88-194c31-1 46 15 58 34l-1-101h50l1 261h-48c-2-10 0-23-3-31C134-8 116 4 84 4 32 4 16-41 15-95c0-56 19-97 73-99zm17 164c33 0 40-30 41-66 1-37-9-64-41-64s-38 30-39 65c0 43 13 65 39 65" id="aX"/><path fill="#242424" d="M185-48c-13 30-37 53-82 52C43 2 14-33 14-96s30-98 90-98c62 0 83 45 84 108H66c0 31 8 55 39 56 18 0 30-7 34-22zm-45-69c5-46-57-63-70-21-2 6-4 13-4 21h74" id="aY"/><g id="n"><use transform="matrix(0.1111111111111111,0,0,0.1111111111111111,0,0)" xlink:href="#aV"/><use transform="matrix(0.1111111111111111,0,0,0.1111111111111111,28.777777777777775,0)" xlink:href="#aW"/><use transform="matrix(0.1111111111111111,0,0,0.1111111111111111,53.11111111111111,0)" xlink:href="#aX"/><use transform="matrix(0.1111111111111111,0,0,0.1111111111111111,77.44444444444444,0)" xlink:href="#aY"/></g><path fill="#242424" d="M18-113h94v29H18v-29" id="aZ"/><use transform="matrix(0.09450530698728213,0,0,0.09450530698728213,0,0)" xlink:href="#aZ" id="o"/><path fill="#242424" d="M96-169c-40 0-48 33-48 73s9 75 48 75c24 0 41-14 43-38l32 2c-6 37-31 61-74 61-59 0-76-41-82-99-10-93 101-131 147-64 4 7 5 14 7 22l-32 3c-4-21-16-35-41-35" id="ba"/><path fill="#242424" d="M100-194c62-1 85 37 85 99 1 63-27 99-86 99S16-35 15-95c0-66 28-99 85-99zM99-20c44 1 53-31 53-75 0-43-8-75-51-75s-53 32-53 75 10 74 51 75" id="bb"/><path fill="#242424" d="M210-169c-67 3-38 105-44 169h-31v-121c0-29-5-50-35-48C34-165 62-65 56 0H25l-1-190h30c1 10-1 24 2 32 10-44 99-50 107 0 11-21 27-35 58-36 85-2 47 119 55 194h-31v-121c0-29-5-49-35-48" id="bc"/><path fill="#242424" d="M85-194c31 0 48 13 60 33l-1-100h32l1 261h-30c-2-10 0-23-3-31C134-8 116 4 85 4 32 4 16-35 15-94c0-66 23-100 70-100zm9 24c-40 0-46 34-46 75 0 40 6 74 45 74 42 0 51-32 51-76 0-42-9-74-50-73" id="bd"/><path fill="#242424" d="M24-231v-30h32v30H24zM24 0v-190h32V0H24" id="be"/><path fill="#242424" d="M59-47c-2 24 18 29 38 22v24C64 9 27 4 27-40v-127H5v-23h24l9-43h21v43h35v23H59v120" id="bf"/><path fill="#242424" d="M179-190L93 31C79 59 56 82 12 73V49c39 6 53-20 64-50L1-190h34L92-34l54-156h33" id="bg"/><g id="p"><use transform="matrix(0.09450530698728213,0,0,0.09450530698728213,0,0)" xlink:href="#ba"/><use transform="matrix(0.09450530698728213,0,0,0.09450530698728213,17.010955257710783,0)" xlink:href="#bb"/><use transform="matrix(0.09450530698728213,0,0,0.09450530698728213,35.91201665516721,0)" xlink:href="#bc"/><use transform="matrix(0.09450530698728213,0,0,0.09450530698728213,64.16910344436457,0)" xlink:href="#bc"/><use transform="matrix(0.09450530698728213,0,0,0.09450530698728213,92.42619023356193,0)" xlink:href="#bb"/><use transform="matrix(0.09450530698728213,0,0,0.09450530698728213,111.32725163101834,0)" xlink:href="#bd"/><use transform="matrix(0.09450530698728213,0,0,0.09450530698728213,130.2283130284748,0)" xlink:href="#be"/><use transform="matrix(0.09450530698728213,0,0,0.09450530698728213,137.6942322804701,0)" xlink:href="#bf"/><use transform="matrix(0.09450530698728213,0,0,0.09450530698728213,147.1447629791983,0)" xlink:href="#bg"/></g><path fill="#242424" d="M115-194c55 1 70 41 70 98S169 2 115 4C84 4 66-9 55-30l1 105H24l-1-265h31l2 30c10-21 28-34 59-34zm-8 174c40 0 45-34 45-75s-6-73-45-74c-42 0-51 32-51 76 0 43 10 73 51 73" id="bh"/><path fill="#242424" d="M114-163C36-179 61-72 57 0H25l-1-190h30c1 12-1 29 2 39 6-27 23-49 58-41v29" id="bi"/><path fill="#242424" d="M100-194c63 0 86 42 84 106H49c0 40 14 67 53 68 26 1 43-12 49-29l28 8c-11 28-37 45-77 45C44 4 14-33 15-96c1-61 26-98 85-98zm52 81c6-60-76-77-97-28-3 7-6 17-6 28h103" id="bj"/><g id="q"><use transform="matrix(0.09450530698728213,0,0,0.09450530698728213,0,0)" xlink:href="#bh"/><use transform="matrix(0.09450530698728213,0,0,0.09450530698728213,18.901061397456427,0)" xlink:href="#bi"/><use transform="matrix(0.09450530698728213,0,0,0.09450530698728213,30.147192928943,0)" xlink:href="#be"/><use transform="matrix(0.09450530698728213,0,0,0.09450530698728213,37.61311218093829,0)" xlink:href="#ba"/><use transform="matrix(0.09450530698728213,0,0,0.09450530698728213,54.62406743864907,0)" xlink:href="#bj"/></g><path fill="#242424" d="M135-143c-3-34-86-38-87 0 15 53 115 12 119 90S17 21 10-45l28-5c4 36 97 45 98 0-10-56-113-15-118-90-4-57 82-63 122-42 12 7 21 19 24 35" id="bk"/><path fill="#242424" d="M141-36C126-15 110 5 73 4 37 3 15-17 15-53c-1-64 63-63 125-63 3-35-9-54-41-54-24 1-41 7-42 31l-33-3c5-37 33-52 76-52 45 0 72 20 72 64v82c-1 20 7 32 28 27v20c-31 9-61-2-59-35zM48-53c0 20 12 33 32 33 41-3 63-29 60-74-43 2-92-5-92 41" id="bl"/><path fill="#242424" d="M177-190C167-65 218 103 67 71c-23-6-38-20-44-43l32-5c15 47 100 32 89-28v-30C133-14 115 1 83 1 29 1 15-40 15-95c0-56 16-97 71-98 29-1 48 16 59 35 1-10 0-23 2-32h30zM94-22c36 0 50-32 50-73 0-42-14-75-50-75-39 0-46 34-46 75s6 73 46 73" id="bm"/><g id="r"><use transform="matrix(0.09450530698728213,0,0,0.09450530698728213,0,0)" xlink:href="#bk"/><use transform="matrix(0.09450530698728213,0,0,0.09450530698728213,17.010955257710783,0)" xlink:href="#bf"/><use transform="matrix(0.09450530698728213,0,0,0.09450530698728213,26.461485956439002,0)" xlink:href="#bb"/><use transform="matrix(0.09450530698728213,0,0,0.09450530698728213,45.36254735389542,0)" xlink:href="#bi"/><use transform="matrix(0.09450530698728213,0,0,0.09450530698728213,56.608678885382,0)" xlink:href="#bl"/><use transform="matrix(0.09450530698728213,0,0,0.09450530698728213,75.50974028283842,0)" xlink:href="#bm"/><use transform="matrix(0.09450530698728213,0,0,0.09450530698728213,94.41080168029485,0)" xlink:href="#bj"/></g><path fill="#242424" d="M76-208v77h127v40H76V0H24v-248h183v40H76" id="bn"/><path fill="#242424" d="M25 0v-261h50V0H25" id="bo"/><path fill="#242424" d="M231 0h-52l-39-155L100 0H48L-1-190h46L77-45c9-52 24-97 36-145h53l37 145 32-145h46" id="bp"/><g id="s"><use transform="matrix(0.1111111111111111,0,0,0.1111111111111111,0,0)" xlink:href="#bn"/><use transform="matrix(0.1111111111111111,0,0,0.1111111111111111,24.333333333333332,0)" xlink:href="#bo"/><use transform="matrix(0.1111111111111111,0,0,0.1111111111111111,35.44444444444444,0)" xlink:href="#aW"/><use transform="matrix(0.1111111111111111,0,0,0.1111111111111111,59.77777777777777,0)" xlink:href="#bp"/></g><path fill="#242424" d="M206 0h-36l-40-164L89 0H53L-1-190h32L70-26l43-164h34l41 164 42-164h31" id="bq"/><g id="t"><use transform="matrix(0.09450530698728213,0,0,0.09450530698728213,0,0)" xlink:href="#bl"/><use transform="matrix(0.09450530698728213,0,0,0.09450530698728213,18.901061397456427,0)" xlink:href="#bi"/><use transform="matrix(0.09450530698728213,0,0,0.09450530698728213,30.147192928943,0)" xlink:href="#bi"/><use transform="matrix(0.09450530698728213,0,0,0.09450530698728213,41.393324460429575,0)" xlink:href="#bb"/><use transform="matrix(0.09450530698728213,0,0,0.09450530698728213,60.294385857886,0)" xlink:href="#bq"/></g><path fill="#242424" d="M108 0H70L1-190h34L89-25l56-165h34" id="br"/><path fill="#242424" d="M24 0v-261h32V0H24" id="bs"/><path fill="#242424" d="M84 4C-5 8 30-112 23-190h32v120c0 31 7 50 39 49 72-2 45-101 50-169h31l1 190h-30c-1-10 1-25-2-33-11 22-28 36-60 37" id="bt"/><g id="u"><use transform="matrix(0.09450530698728213,0,0,0.09450530698728213,0,0)" xlink:href="#br"/><use transform="matrix(0.09450530698728213,0,0,0.09450530698728213,17.010955257710783,0)" xlink:href="#bb"/><use transform="matrix(0.09450530698728213,0,0,0.09450530698728213,35.91201665516721,0)" xlink:href="#bs"/><use transform="matrix(0.09450530698728213,0,0,0.09450530698728213,43.377935907162495,0)" xlink:href="#bt"/><use transform="matrix(0.09450530698728213,0,0,0.09450530698728213,62.278997304618926,0)" xlink:href="#bc"/><use transform="matrix(0.09450530698728213,0,0,0.09450530698728213,90.53608409381629,0)" xlink:href="#bj"/></g><path d="M96-169c-40 0-48 33-48 73s9 75 48 75c24 0 41-14 43-38l32 2c-6 37-31 61-74 61-59 0-76-41-82-99-10-93 101-131 147-64 4 7 5 14 7 22l-32 3c-4-21-16-35-41-35" id="bu"/><path d="M141-36C126-15 110 5 73 4 37 3 15-17 15-53c-1-64 63-63 125-63 3-35-9-54-41-54-24 1-41 7-42 31l-33-3c5-37 33-52 76-52 45 0 72 20 72 64v82c-1 20 7 32 28 27v20c-31 9-61-2-59-35zM48-53c0 20 12 33 32 33 41-3 63-29 60-74-43 2-92-5-92 41" id="bv"/><path d="M117-194c89-4 53 116 60 194h-32v-121c0-31-8-49-39-48C34-167 62-67 57 0H25l-1-190h30c1 10-1 24 2 32 11-22 29-35 61-36" id="bw"/><g id="w"><use transform="matrix(0.11340636838473854,0,0,0.11340636838473854,0,0)" xlink:href="#bu"/><use transform="matrix(0.11340636838473854,0,0,0.11340636838473854,20.413146309252937,0)" xlink:href="#bv"/><use transform="matrix(0.11340636838473854,0,0,0.11340636838473854,43.09441998620065,0)" xlink:href="#bw"/></g><path d="M115-194c53 0 69 39 70 98 0 66-23 100-70 100C84 3 66-7 56-30L54 0H23l1-261h32v101c10-23 28-34 59-34zm-8 174c40 0 45-34 45-75 0-40-5-75-45-74-42 0-51 32-51 76 0 43 10 73 51 73" id="bx"/><path d="M100-194c63 0 86 42 84 106H49c0 40 14 67 53 68 26 1 43-12 49-29l28 8c-11 28-37 45-77 45C44 4 14-33 15-96c1-61 26-98 85-98zm52 81c6-60-76-77-97-28-3 7-6 17-6 28h103" id="by"/><g id="x"><use transform="matrix(0.11340636838473854,0,0,0.11340636838473854,0,0)" xlink:href="#bx"/><use transform="matrix(0.11340636838473854,0,0,0.11340636838473854,22.681273676947708,0)" xlink:href="#by"/></g><path d="M114-163C36-179 61-72 57 0H25l-1-190h30c1 12-1 29 2 39 6-27 23-49 58-41v29" id="bz"/><path d="M115-194c55 1 70 41 70 98S169 2 115 4C84 4 66-9 55-30l1 105H24l-1-265h31l2 30c10-21 28-34 59-34zm-8 174c40 0 45-34 45-75s-6-73-45-74c-42 0-51 32-51 76 0 43 10 73 51 73" id="bA"/><path d="M135-143c-3-34-86-38-87 0 15 53 115 12 119 90S17 21 10-45l28-5c4 36 97 45 98 0-10-56-113-15-118-90-4-57 82-63 122-42 12 7 21 19 24 35" id="bB"/><path d="M59-47c-2 24 18 29 38 22v24C64 9 27 4 27-40v-127H5v-23h24l9-43h21v43h35v23H59v120" id="bC"/><path d="M85-194c31 0 48 13 60 33l-1-100h32l1 261h-30c-2-10 0-23-3-31C134-8 116 4 85 4 32 4 16-35 15-94c0-66 23-100 70-100zm9 24c-40 0-46 34-46 75 0 40 6 74 45 74 42 0 51-32 51-76 0-42-9-74-50-73" id="bD"/><g id="y"><use transform="matrix(0.11340636838473854,0,0,0.11340636838473854,0,0)" xlink:href="#bz"/><use transform="matrix(0.11340636838473854,0,0,0.11340636838473854,13.495357837783887,0)" xlink:href="#by"/><use transform="matrix(0.11340636838473854,0,0,0.11340636838473854,36.176631514731596,0)" xlink:href="#bA"/><use transform="matrix(0.11340636838473854,0,0,0.11340636838473854,58.8579051916793,0)" xlink:href="#bz"/><use transform="matrix(0.11340636838473854,0,0,0.11340636838473854,72.35326302946319,0)" xlink:href="#by"/><use transform="matrix(0.11340636838473854,0,0,0.11340636838473854,95.0345367064109,0)" xlink:href="#bB"/><use transform="matrix(0.11340636838473854,0,0,0.11340636838473854,115.44768301566384,0)" xlink:href="#by"/><use transform="matrix(0.11340636838473854,0,0,0.11340636838473854,138.12895669261155,0)" xlink:href="#bw"/><use transform="matrix(0.11340636838473854,0,0,0.11340636838473854,160.81023036955926,0)" xlink:href="#bC"/><use transform="matrix(0.11340636838473854,0,0,0.11340636838473854,172.1508672080331,0)" xlink:href="#by"/><use transform="matrix(0.11340636838473854,0,0,0.11340636838473854,194.83214088498082,0)" xlink:href="#bD"/></g><g id="z"><use transform="matrix(0.11340636838473854,0,0,0.11340636838473854,0,0)" xlink:href="#bv"/><use transform="matrix(0.11340636838473854,0,0,0.11340636838473854,22.681273676947708,0)" xlink:href="#bB"/></g><path fill="#333" d="M199 0l-22-63H83L61 0H9l90-248h61L250 0h-51zm-33-102l-36-108c-10 38-24 72-36 108h72" id="bE"/><path fill="#333" d="M128 0H69L1-190h53L99-40l48-150h52" id="bF"/><g id="A"><use transform="matrix(0.1512084911796514,0,0,0.1512084911796514,0,0)" xlink:href="#bE"/><use transform="matrix(0.1512084911796514,0,0,0.1512084911796514,39.162999215529716,0)" xlink:href="#aj"/><use transform="matrix(0.1512084911796514,0,0,0.1512084911796514,72.27765878387336,0)" xlink:href="#bF"/><use transform="matrix(0.1512084911796514,0,0,0.1512084911796514,102.51935701980364,0)" xlink:href="#aE"/><use transform="matrix(0.1512084911796514,0,0,0.1512084911796514,132.7610552557339,0)" xlink:href="#aF"/><use transform="matrix(0.1512084911796514,0,0,0.1512084911796514,165.87571482407756,0)" xlink:href="#ao"/><use transform="matrix(0.1512084911796514,0,0,0.1512084911796514,196.11741306000783,0)" xlink:href="#ak"/><use transform="matrix(0.1512084911796514,0,0,0.1512084911796514,226.3591112959381,0)" xlink:href="#aj"/></g><g id="B"><use transform="matrix(0.1512084911796514,0,0,0.1512084911796514,0,0)" xlink:href="#aj"/><use transform="matrix(0.1512084911796514,0,0,0.1512084911796514,33.114659568343654,0)" xlink:href="#aE"/><use transform="matrix(0.1512084911796514,0,0,0.1512084911796514,63.356357804273934,0)" xlink:href="#ap"/><use transform="matrix(0.1512084911796514,0,0,0.1512084911796514,81.35016825465246,0)" xlink:href="#aE"/></g><g id="C"><use transform="matrix(0.1512084911796514,0,0,0.1512084911796514,0,0)" xlink:href="#aJ"/><use transform="matrix(0.1512084911796514,0,0,0.1512084911796514,33.114659568343654,0)" xlink:href="#aI"/><use transform="matrix(0.1512084911796514,0,0,0.1512084911796514,54.28384833349485,0)" xlink:href="#ai"/><use transform="matrix(0.1512084911796514,0,0,0.1512084911796514,87.39850790183851,0)" xlink:href="#ao"/><use transform="matrix(0.1512084911796514,0,0,0.1512084911796514,117.6402061377688,0)" xlink:href="#ak"/><use transform="matrix(0.1512084911796514,0,0,0.1512084911796514,147.88190437369906,0)" xlink:href="#aP"/><use transform="matrix(0.1512084911796514,0,0,0.1512084911796514,178.12360260962933,0)" xlink:href="#aP"/><use transform="matrix(0.1512084911796514,0,0,0.1512084911796514,208.3653008455596,0)" xlink:href="#aQ"/><use transform="matrix(0.1512084911796514,0,0,0.1512084911796514,223.48614996352475,0)" xlink:href="#aF"/><use transform="matrix(0.1512084911796514,0,0,0.1512084911796514,256.60080953186844,0)" xlink:href="#aS"/></g><path fill="#242424" d="M205 0l-28-72H64L36 0H1l101-248h38L239 0h-34zm-38-99l-47-123c-12 45-31 82-46 123h93" id="bG"/><path fill="#242424" d="M117-194c89-4 53 116 60 194h-32v-121c0-31-8-49-39-48C34-167 62-67 57 0H25l-1-190h30c1 10-1 24 2 32 11-22 29-35 61-36" id="bH"/><g id="D"><use transform="matrix(0.11340636838473854,0,0,0.11340636838473854,0,0)" xlink:href="#bG"/><use transform="matrix(0.11340636838473854,0,0,0.11340636838473854,27.21752841233725,0)" xlink:href="#bm"/><use transform="matrix(0.11340636838473854,0,0,0.11340636838473854,49.898802089284956,0)" xlink:href="#bm"/><use transform="matrix(0.11340636838473854,0,0,0.11340636838473854,72.58007576623267,0)" xlink:href="#bi"/><use transform="matrix(0.11340636838473854,0,0,0.11340636838473854,86.07543360401655,0)" xlink:href="#bj"/><use transform="matrix(0.11340636838473854,0,0,0.11340636838473854,108.75670728096426,0)" xlink:href="#bm"/><use transform="matrix(0.11340636838473854,0,0,0.11340636838473854,131.43798095791198,0)" xlink:href="#bl"/><use transform="matrix(0.11340636838473854,0,0,0.11340636838473854,154.1192546348597,0)" xlink:href="#bf"/><use transform="matrix(0.11340636838473854,0,0,0.11340636838473854,165.45989147333353,0)" xlink:href="#be"/><use transform="matrix(0.11340636838473854,0,0,0.11340636838473854,174.41899457572788,0)" xlink:href="#bb"/><use transform="matrix(0.11340636838473854,0,0,0.11340636838473854,197.1002682526756,0)" xlink:href="#bH"/></g><path fill="#242424" d="M30-248c118-7 216 8 213 122C240-48 200 0 122 0H30v-248zM63-27c89 8 146-16 146-99s-60-101-146-95v194" id="bI"/><g id="E"><use transform="matrix(0.11340636838473854,0,0,0.11340636838473854,0,0)" xlink:href="#bI"/><use transform="matrix(0.11340636838473854,0,0,0.11340636838473854,29.37224941164728,0)" xlink:href="#be"/><use transform="matrix(0.11340636838473854,0,0,0.11340636838473854,38.331352514041626,0)" xlink:href="#bk"/><use transform="matrix(0.11340636838473854,0,0,0.11340636838473854,58.74449882329456,0)" xlink:href="#bl"/><use transform="matrix(0.11340636838473854,0,0,0.11340636838473854,81.42577250024227,0)" xlink:href="#bm"/><use transform="matrix(0.11340636838473854,0,0,0.11340636838473854,104.10704617718999,0)" xlink:href="#bm"/><use transform="matrix(0.11340636838473854,0,0,0.11340636838473854,126.78831985413768,0)" xlink:href="#bi"/><use transform="matrix(0.11340636838473854,0,0,0.11340636838473854,140.28367769192158,0)" xlink:href="#bj"/><use transform="matrix(0.11340636838473854,0,0,0.11340636838473854,162.9649513688693,0)" xlink:href="#bm"/><use transform="matrix(0.11340636838473854,0,0,0.11340636838473854,185.646225045817,0)" xlink:href="#bl"/><use transform="matrix(0.11340636838473854,0,0,0.11340636838473854,208.32749872276472,0)" xlink:href="#bf"/><use transform="matrix(0.11340636838473854,0,0,0.11340636838473854,219.66813556123856,0)" xlink:href="#be"/><use transform="matrix(0.11340636838473854,0,0,0.11340636838473854,228.6272386636329,0)" xlink:href="#bb"/><use transform="matrix(0.11340636838473854,0,0,0.11340636838473854,251.3085123405806,0)" xlink:href="#bH"/></g><path fill="#242424" d="M232-93c-1 65-40 97-104 97C67 4 28-28 28-90v-158h33c8 89-33 224 67 224 102 0 64-133 71-224h33v155" id="bJ"/><g id="F"><use transform="matrix(0.11340636838473854,0,0,0.11340636838473854,0,0)" xlink:href="#bJ"/><use transform="matrix(0.11340636838473854,0,0,0.11340636838473854,29.37224941164728,0)" xlink:href="#bH"/><use transform="matrix(0.11340636838473854,0,0,0.11340636838473854,52.053523088594986,0)" xlink:href="#be"/><use transform="matrix(0.11340636838473854,0,0,0.11340636838473854,61.01262619098934,0)" xlink:href="#bf"/></g><g id="G"><use transform="matrix(0.11340636838473854,0,0,0.11340636838473854,0,0)" xlink:href="#ba"/><use transform="matrix(0.11340636838473854,0,0,0.11340636838473854,20.413146309252937,0)" xlink:href="#bb"/><use transform="matrix(0.11340636838473854,0,0,0.11340636838473854,43.09441998620065,0)" xlink:href="#bH"/><use transform="matrix(0.11340636838473854,0,0,0.11340636838473854,65.77569366314836,0)" xlink:href="#br"/><use transform="matrix(0.11340636838473854,0,0,0.11340636838473854,86.1888399724013,0)" xlink:href="#bj"/><use transform="matrix(0.11340636838473854,0,0,0.11340636838473854,108.87011364934901,0)" xlink:href="#bi"/><use transform="matrix(0.11340636838473854,0,0,0.11340636838473854,122.36547148713288,0)" xlink:href="#bk"/><use transform="matrix(0.11340636838473854,0,0,0.11340636838473854,142.77861779638584,0)" xlink:href="#be"/><use transform="matrix(0.11340636838473854,0,0,0.11340636838473854,151.7377208987802,0)" xlink:href="#bb"/><use transform="matrix(0.11340636838473854,0,0,0.11340636838473854,174.4189945757279,0)" xlink:href="#bH"/></g><path fill="#242424" d="M127-220V0H93v-220H8v-28h204v28h-85" id="bK"/><g id="H"><use transform="matrix(0.11340636838473854,0,0,0.11340636838473854,0,0)" xlink:href="#bK"/><use transform="matrix(0.11340636838473854,0,0,0.11340636838473854,23.36171188725614,0)" xlink:href="#be"/><use transform="matrix(0.11340636838473854,0,0,0.11340636838473854,32.320814989650486,0)" xlink:href="#bc"/><use transform="matrix(0.11340636838473854,0,0,0.11340636838473854,66.22931913668731,0)" xlink:href="#bj"/></g><g id="I"><use transform="matrix(0.11340636838473854,0,0,0.11340636838473854,0,0)" xlink:href="#bk"/><use transform="matrix(0.11340636838473854,0,0,0.11340636838473854,20.413146309252937,0)" xlink:href="#bf"/><use transform="matrix(0.11340636838473854,0,0,0.11340636838473854,31.753783147726793,0)" xlink:href="#bl"/><use transform="matrix(0.11340636838473854,0,0,0.11340636838473854,54.435056824674504,0)" xlink:href="#bH"/><use transform="matrix(0.11340636838473854,0,0,0.11340636838473854,77.11633050162222,0)" xlink:href="#bd"/><use transform="matrix(0.11340636838473854,0,0,0.11340636838473854,99.79760417856993,0)" xlink:href="#bl"/><use transform="matrix(0.11340636838473854,0,0,0.11340636838473854,122.47887785551765,0)" xlink:href="#bi"/><use transform="matrix(0.11340636838473854,0,0,0.11340636838473854,135.97423569330152,0)" xlink:href="#bd"/><use transform="matrix(0.11340636838473854,0,0,0.11340636838473854,158.65550937024923,0)" xlink:href="#bk"/></g><path fill="#333" d="M24 0v-248h52V0H24" id="bL"/><path fill="#333" d="M121-226c-27-7-43 5-38 36h38v33H83V0H34v-157H6v-33h28c-9-59 32-81 87-68v32" id="bM"/><g id="J"><use transform="matrix(0.1512084911796514,0,0,0.1512084911796514,0,0)" xlink:href="#bL"/><use transform="matrix(0.1512084911796514,0,0,0.1512084911796514,15.12084911796514,0)" xlink:href="#aF"/><use transform="matrix(0.1512084911796514,0,0,0.1512084911796514,48.23550868630879,0)" xlink:href="#ap"/><use transform="matrix(0.1512084911796514,0,0,0.1512084911796514,66.22931913668731,0)" xlink:href="#ak"/><use transform="matrix(0.1512084911796514,0,0,0.1512084911796514,96.47101737261758,0)" xlink:href="#aI"/><use transform="matrix(0.1512084911796514,0,0,0.1512084911796514,117.6402061377688,0)" xlink:href="#bM"/><use transform="matrix(0.1512084911796514,0,0,0.1512084911796514,135.6340165881473,0)" xlink:href="#aE"/><use transform="matrix(0.1512084911796514,0,0,0.1512084911796514,165.87571482407756,0)" xlink:href="#ao"/><use transform="matrix(0.1512084911796514,0,0,0.1512084911796514,196.11741306000783,0)" xlink:href="#ak"/><use transform="matrix(0.1512084911796514,0,0,0.1512084911796514,226.3591112959381,0)" xlink:href="#aP"/></g><path fill="#242424" d="M30-248c87 1 191-15 191 75 0 78-77 80-158 76V0H30v-248zm33 125c57 0 124 11 124-50 0-59-68-47-124-48v98" id="bN"/><g id="K"><use transform="matrix(0.11340636838473854,0,0,0.11340636838473854,0,0)" xlink:href="#bN"/><use transform="matrix(0.11340636838473854,0,0,0.11340636838473854,27.21752841233725,0)" xlink:href="#bb"/><use transform="matrix(0.11340636838473854,0,0,0.11340636838473854,49.898802089284956,0)" xlink:href="#bh"/><use transform="matrix(0.11340636838473854,0,0,0.11340636838473854,72.58007576623267,0)" xlink:href="#bt"/><use transform="matrix(0.11340636838473854,0,0,0.11340636838473854,95.26134944318038,0)" xlink:href="#bs"/><use transform="matrix(0.11340636838473854,0,0,0.11340636838473854,104.22045254557472,0)" xlink:href="#bl"/><use transform="matrix(0.11340636838473854,0,0,0.11340636838473854,126.90172622252243,0)" xlink:href="#bf"/><use transform="matrix(0.11340636838473854,0,0,0.11340636838473854,138.24236306099627,0)" xlink:href="#bb"/><use transform="matrix(0.11340636838473854,0,0,0.11340636838473854,160.92363673794398,0)" xlink:href="#bi"/></g><path fill="#242424" d="M185-189c-5-48-123-54-124 2 14 75 158 14 163 119 3 78-121 87-175 55-17-10-28-26-33-46l33-7c5 56 141 63 141-1 0-78-155-14-162-118-5-82 145-84 179-34 5 7 8 16 11 25" id="bO"/><g id="L"><use transform="matrix(0.11340636838473854,0,0,0.11340636838473854,0,0)" xlink:href="#bO"/><use transform="matrix(0.11340636838473854,0,0,0.11340636838473854,27.21752841233725,0)" xlink:href="#bb"/><use transform="matrix(0.11340636838473854,0,0,0.11340636838473854,49.898802089284956,0)" xlink:href="#bs"/><use transform="matrix(0.11340636838473854,0,0,0.11340636838473854,58.8579051916793,0)" xlink:href="#br"/><use transform="matrix(0.11340636838473854,0,0,0.11340636838473854,79.27105150093223,0)" xlink:href="#bj"/><use transform="matrix(0.11340636838473854,0,0,0.11340636838473854,101.95232517787994,0)" xlink:href="#bi"/></g><g id="M"><use transform="matrix(0.11340636838473854,0,0,0.11340636838473854,0,0)" xlink:href="#bG"/><use transform="matrix(0.11340636838473854,0,0,0.11340636838473854,27.21752841233725,0)" xlink:href="#bm"/><use transform="matrix(0.11340636838473854,0,0,0.11340636838473854,49.898802089284956,0)" xlink:href="#bm"/><use transform="matrix(0.11340636838473854,0,0,0.11340636838473854,72.58007576623267,0)" xlink:href="#bi"/><use transform="matrix(0.11340636838473854,0,0,0.11340636838473854,86.07543360401655,0)" xlink:href="#bj"/><use transform="matrix(0.11340636838473854,0,0,0.11340636838473854,108.75670728096426,0)" xlink:href="#bm"/><use transform="matrix(0.11340636838473854,0,0,0.11340636838473854,131.43798095791198,0)" xlink:href="#bl"/><use transform="matrix(0.11340636838473854,0,0,0.11340636838473854,154.1192546348597,0)" xlink:href="#bf"/><use transform="matrix(0.11340636838473854,0,0,0.11340636838473854,165.45989147333353,0)" xlink:href="#bb"/><use transform="matrix(0.11340636838473854,0,0,0.11340636838473854,188.14116515028124,0)" xlink:href="#bi"/></g><path fill="#242424" d="M33 0v-248h34V0H33" id="bP"/><path fill="#242424" d="M141 0L90-78 38 0H4l68-98-65-92h35l48 74 47-74h35l-64 92 68 98h-35" id="bQ"/><g id="N"><use transform="matrix(0.11340636838473854,0,0,0.11340636838473854,0,0)" xlink:href="#bP"/><use transform="matrix(0.11340636838473854,0,0,0.11340636838473854,11.340636838473854,0)" xlink:href="#bH"/><use transform="matrix(0.11340636838473854,0,0,0.11340636838473854,34.02191051542156,0)" xlink:href="#bd"/><use transform="matrix(0.11340636838473854,0,0,0.11340636838473854,56.703184192369264,0)" xlink:href="#bj"/><use transform="matrix(0.11340636838473854,0,0,0.11340636838473854,79.38445786931698,0)" xlink:href="#bQ"/></g><path fill="#242424" d="M33 0v-38h34V0H33" id="bR"/><g id="O"><use transform="matrix(0.11340636838473854,0,0,0.11340636838473854,0,0)" xlink:href="#bR"/><use transform="matrix(0.11340636838473854,0,0,0.11340636838473854,11.340636838473854,0)" xlink:href="#bR"/><use transform="matrix(0.11340636838473854,0,0,0.11340636838473854,22.681273676947708,0)" xlink:href="#bR"/></g><path fill="#fff" d="M88-194c31-1 46 15 58 34l-1-101h50l1 261h-48c-2-10 0-23-3-31C134-8 116 4 84 4 32 4 16-41 15-95c0-56 19-97 73-99zm17 164c33 0 40-30 41-66 1-37-9-64-41-64s-38 30-39 65c0 43 13 65 39 65" id="bS"/><path fill="#fff" d="M133-34C117-15 103 5 69 4 32 3 11-16 11-54c-1-60 55-63 116-61 1-26-3-47-28-47-18 1-26 9-28 27l-52-2c7-38 36-58 82-57s74 22 75 68l1 82c-1 14 12 18 25 15v27c-30 8-71 5-69-32zm-48 3c29 0 43-24 42-57-32 0-66-3-65 30 0 17 8 27 23 27" id="bT"/><g id="P"><use transform="matrix(0.19440135535995,0,0,0.19440135535995,0,0)" xlink:href="#bS"/><use transform="matrix(0.19440135535995,0,0,0.19440135535995,42.57389682382905,0)" xlink:href="#bT"/><use transform="matrix(0.19440135535995,0,0,0.19440135535995,81.45416789581905,0)" xlink:href="#aA"/><use transform="matrix(0.19440135535995,0,0,0.19440135535995,104.5879291836531,0)" xlink:href="#bT"/></g><g id="Q"><use transform="matrix(0.19440135535995,0,0,0.19440135535995,0,0)" xlink:href="#aB"/><use transform="matrix(0.19440135535995,0,0,0.19440135535995,38.88027107199,0)" xlink:href="#ae"/><use transform="matrix(0.19440135535995,0,0,0.19440135535995,81.45416789581905,0)" xlink:href="#av"/><use transform="matrix(0.19440135535995,0,0,0.19440135535995,100.89430343181405,0)" xlink:href="#aw"/><use transform="matrix(0.19440135535995,0,0,0.19440135535995,139.77457450380405,0)" xlink:href="#ag"/><use transform="matrix(0.19440135535995,0,0,0.19440135535995,178.65484557579404,0)" xlink:href="#af"/></g><path d="M100-194c62-1 85 37 85 99 1 63-27 99-86 99S16-35 15-95c0-66 28-99 85-99zM99-20c44 1 53-31 53-75 0-43-8-75-51-75s-53 32-53 75 10 74 51 75" id="bU"/><path d="M84 4C-5 8 30-112 23-190h32v120c0 31 7 50 39 49 72-2 45-101 50-169h31l1 190h-30c-1-10 1-25-2-33-11 22-28 36-60 37" id="bV"/><path d="M24 0v-261h32V0H24" id="bW"/><g id="R"><use transform="matrix(0.11340636838473854,0,0,0.11340636838473854,0,0)" xlink:href="#bA"/><use transform="matrix(0.11340636838473854,0,0,0.11340636838473854,22.681273676947708,0)" xlink:href="#bU"/><use transform="matrix(0.11340636838473854,0,0,0.11340636838473854,45.362547353895415,0)" xlink:href="#bA"/><use transform="matrix(0.11340636838473854,0,0,0.11340636838473854,68.04382103084312,0)" xlink:href="#bV"/><use transform="matrix(0.11340636838473854,0,0,0.11340636838473854,90.72509470779083,0)" xlink:href="#bW"/><use transform="matrix(0.11340636838473854,0,0,0.11340636838473854,99.68419781018517,0)" xlink:href="#bv"/><use transform="matrix(0.11340636838473854,0,0,0.11340636838473854,122.36547148713288,0)" xlink:href="#bC"/><use transform="matrix(0.11340636838473854,0,0,0.11340636838473854,133.70610832560672,0)" xlink:href="#by"/><use transform="matrix(0.11340636838473854,0,0,0.11340636838473854,156.38738200255443,0)" xlink:href="#bB"/></g><path d="M210-169c-67 3-38 105-44 169h-31v-121c0-29-5-50-35-48C34-165 62-65 56 0H25l-1-190h30c1 10-1 24 2 32 10-44 99-50 107 0 11-21 27-35 58-36 85-2 47 119 55 194h-31v-121c0-29-5-49-35-48" id="bX"/><g id="S"><use transform="matrix(0.11340636838473854,0,0,0.11340636838473854,0,0)" xlink:href="#bX"/><use transform="matrix(0.11340636838473854,0,0,0.11340636838473854,33.90850414703682,0)" xlink:href="#bU"/><use transform="matrix(0.11340636838473854,0,0,0.11340636838473854,56.589777823984534,0)" xlink:href="#bD"/><use transform="matrix(0.11340636838473854,0,0,0.11340636838473854,79.27105150093224,0)" xlink:href="#by"/><use transform="matrix(0.11340636838473854,0,0,0.11340636838473854,101.95232517787996,0)" xlink:href="#bW"/></g><path d="M24-231v-30h32v30H24zM-9 49c24 4 33-6 33-30v-209h32V24c2 40-23 58-65 49V49" id="bY"/><g id="T"><use transform="matrix(0.11340636838473854,0,0,0.11340636838473854,0,0)" xlink:href="#bU"/><use transform="matrix(0.11340636838473854,0,0,0.11340636838473854,22.681273676947708,0)" xlink:href="#bx"/><use transform="matrix(0.11340636838473854,0,0,0.11340636838473854,45.362547353895415,0)" xlink:href="#bY"/><use transform="matrix(0.11340636838473854,0,0,0.11340636838473854,54.32165045628976,0)" xlink:href="#by"/><use transform="matrix(0.11340636838473854,0,0,0.11340636838473854,77.00292413323747,0)" xlink:href="#bu"/><use transform="matrix(0.11340636838473854,0,0,0.11340636838473854,97.41607044249041,0)" xlink:href="#bC"/></g><path d="M108 0H70L1-190h34L89-25l56-165h34" id="bZ"/><g id="U"><use transform="matrix(0.11340636838473854,0,0,0.11340636838473854,0,0)" xlink:href="#bB"/><use transform="matrix(0.11340636838473854,0,0,0.11340636838473854,20.413146309252937,0)" xlink:href="#bU"/><use transform="matrix(0.11340636838473854,0,0,0.11340636838473854,43.09441998620065,0)" xlink:href="#bW"/><use transform="matrix(0.11340636838473854,0,0,0.11340636838473854,52.05352308859499,0)" xlink:href="#bZ"/><use transform="matrix(0.11340636838473854,0,0,0.11340636838473854,72.46666939784794,0)" xlink:href="#by"/><use transform="matrix(0.11340636838473854,0,0,0.11340636838473854,95.14794307479565,0)" xlink:href="#bB"/></g><g id="V"><use transform="matrix(0.11340636838473854,0,0,0.11340636838473854,0,0)" xlink:href="#bX"/><use transform="matrix(0.11340636838473854,0,0,0.11340636838473854,33.90850414703682,0)" xlink:href="#bU"/><use transform="matrix(0.11340636838473854,0,0,0.11340636838473854,56.589777823984534,0)" xlink:href="#bD"/><use transform="matrix(0.11340636838473854,0,0,0.11340636838473854,79.27105150093224,0)" xlink:href="#by"/><use transform="matrix(0.11340636838473854,0,0,0.11340636838473854,101.95232517787996,0)" xlink:href="#bW"/></g><g id="W"><use transform="matrix(0.11340636838473854,0,0,0.11340636838473854,0,0)" xlink:href="#bv"/><use transform="matrix(0.11340636838473854,0,0,0.11340636838473854,22.681273676947708,0)" xlink:href="#bw"/><use transform="matrix(0.11340636838473854,0,0,0.11340636838473854,45.362547353895415,0)" xlink:href="#bD"/></g><path d="M177-190C167-65 218 103 67 71c-23-6-38-20-44-43l32-5c15 47 100 32 89-28v-30C133-14 115 1 83 1 29 1 15-40 15-95c0-56 16-97 71-98 29-1 48 16 59 35 1-10 0-23 2-32h30zM94-22c36 0 50-32 50-73 0-42-14-75-50-75-39 0-46 34-46 75s6 73 46 73" id="ca"/><g id="X"><use transform="matrix(0.11340636838473854,0,0,0.11340636838473854,0,0)" xlink:href="#ca"/><use transform="matrix(0.11340636838473854,0,0,0.11340636838473854,22.681273676947708,0)" xlink:href="#by"/><use transform="matrix(0.11340636838473854,0,0,0.11340636838473854,45.362547353895415,0)" xlink:href="#bC"/><use transform="matrix(0.11340636838473854,0,0,0.11340636838473854,56.70318419236927,0)" xlink:href="#bB"/></g><g id="Y"><use transform="matrix(0.11340636838473854,0,0,0.11340636838473854,0,0)" xlink:href="#bz"/><use transform="matrix(0.11340636838473854,0,0,0.11340636838473854,13.495357837783887,0)" xlink:href="#by"/><use transform="matrix(0.11340636838473854,0,0,0.11340636838473854,36.176631514731596,0)" xlink:href="#bB"/><use transform="matrix(0.11340636838473854,0,0,0.11340636838473854,56.589777823984534,0)" xlink:href="#bV"/><use transform="matrix(0.11340636838473854,0,0,0.11340636838473854,79.27105150093224,0)" xlink:href="#bW"/><use transform="matrix(0.11340636838473854,0,0,0.11340636838473854,88.23015460332658,0)" xlink:href="#bC"/><use transform="matrix(0.11340636838473854,0,0,0.11340636838473854,99.57079144180044,0)" xlink:href="#bB"/></g></defs></g></svg>